<svg xmlns="http://www.w3.org/2000/svg" viewBox="0 0 1280 400" width="1280" height="400" role="img" aria-label="shud — Software pragmático. Feito em Beagá">
  <defs>
    <linearGradient id="bg" x1="0.12" y1="0" x2="0.88" y2="1">
      <stop offset="0%" stop-color="#1E3A70"/>
      <stop offset="50%" stop-color="#0F2355"/>
      <stop offset="100%" stop-color="#061033"/>
    </linearGradient>
    <radialGradient id="glowA" cx="50%" cy="50%" r="50%">
      <stop offset="0%" stop-color="#3B82F6" stop-opacity="0.18"/>
      <stop offset="100%" stop-color="#3B82F6" stop-opacity="0"/>
    </radialGradient>
    <radialGradient id="glowB" cx="50%" cy="50%" r="50%">
      <stop offset="0%" stop-color="#60A5FA" stop-opacity="0.12"/>
      <stop offset="100%" stop-color="#60A5FA" stop-opacity="0"/>
    </radialGradient>
  </defs>

  <rect width="1280" height="400" fill="url(#bg)"/>
  <circle cx="300" cy="20" r="380" fill="url(#glowA)"/>
  <circle cx="1010" cy="390" r="320" fill="url(#glowB)"/>

  <!-- wordmark shud (glifos reais do logo da marca) -->
  <g fill="#FFFFFF" transform="translate(490,96) scale(1.772) translate(-16.477093,-68.728202)">
    <path d="m 161.51547,131.3862 q -3.72534,0 -6.68867,-1.10067 -2.87867,-1.10066 -4.99533,-3.13266 -2.032,-2.11667 -3.13267,-4.99534 -1.10067,-2.96333 -1.10067,-6.51933 v -11.59933 q 0,-3.64067 1.10067,-6.519336 1.10067,-2.878666 3.13267,-4.910666 2.11666,-2.032 4.99533,-3.132667 2.96333,-1.185333 6.68867,-1.185333 h 3.38666 q 3.556,0 6.43467,1.016 V 73.728202 h 9.48267 V 131.3862 Z m 9.82133,-9.73667 v -17.35666 q 0,-2.794 -1.86267,-4.487336 -1.86266,-1.778 -4.572,-1.778 h -3.38666 q -2.70934,0 -4.65667,1.778 -1.86267,1.693336 -1.86267,4.487336 v 11.00666 q 0,2.794 1.86267,4.572 1.94733,1.778 4.65667,1.778 z"/>
    <path d="m 122.99229,121.7342 c 1.41111,0 2.54,-0.16933 3.38667,-0.508 0.90311,-0.33867 1.60866,-0.79022 2.11666,-1.35467 0.56445,-0.56444 0.95956,-1.24177 1.18534,-2.032 0.22577,-0.79022 0.33866,-1.63689 0.33866,-2.54 V 88.290868 h 9.906 V 131.3862 h -9.906 c 0,0 -4.58958,-0.005 -6.26533,0 h -4.318 c -2.54,0 -4.76956,-0.42333 -6.68867,-1.27 -1.86267,-0.84667 -3.41489,-1.94733 -4.65666,-3.302 -1.24178,-1.41111 -2.20134,-2.99156 -2.87867,-4.74133 -0.62089,-1.80623 -0.93133,-3.61245 -0.93133,-5.41867 V 88.290868 h 9.82133 V 114.6222 c 0,1.016 0.0847,1.94733 0.254,2.794 0.16933,0.84667 0.508,1.60867 1.016,2.286 0.508,0.62089 1.21356,1.12889 2.11667,1.524 0.90311,0.33867 2.11666,0.508 3.64066,0.508 z"/>
    <path d="m 79.135008,97.942868 q -2.201333,0 -3.640666,0.592666 -1.354667,0.508 -2.116667,1.439334 -0.762,0.931332 -1.100667,2.286002 -0.254,1.27 -0.254,2.794 V 131.3862 H 62.540342 V 73.728202 h 9.482666 v 15.493999 q 1.27,-0.423333 2.624667,-0.677333 1.439333,-0.254 3.048,-0.254 h 5.08 q 3.725333,0 6.519333,1.27 2.878666,1.27 4.741333,3.386666 1.947333,2.032 2.878667,4.741334 0.931333,2.624662 0.931333,5.334002 v 28.36333 h -9.567333 v -26.33133 q 0,-1.524 -0.254,-2.794 -0.254,-1.35467 -1.100667,-2.286002 -0.762,-0.931334 -2.116666,-1.439334 -1.354667,-0.592666 -3.556,-0.592666 z"/>
    <path d="M 52.126425,96.672868 H 35.277759 q -1.100667,0 -1.862667,0.423333 -0.677333,0.338667 -1.185333,1.016 -0.508,0.677333 -0.762,1.524 -0.254,0.761999 -0.254,1.523999 0,1.60867 1.016,2.96333 1.100667,1.27 2.624667,1.27 h 9.482666 q 2.963333,0 5.164666,1.016 2.286,1.016 3.725334,2.794 1.524,1.778 2.201333,4.23334 0.762,2.45533 0.762,5.24933 v 0.254 q 0,2.794 -0.931333,5.08 -0.846667,2.286 -2.455334,3.89467 -1.608666,1.60866 -3.81,2.54 -2.201333,0.93133 -4.656666,0.93133 H 23.847759 v -8.382 h 17.610666 q 1.947334,0 3.556,-1.10067 1.693333,-1.10066 1.778,-3.302 v 0.0847 q 0,-1.27 -0.508,-2.11667 -0.423333,-0.84666 -1.185333,-1.35466 -0.762,-0.59267 -1.693333,-0.84667 -0.931334,-0.254 -1.947334,-0.254 h -7.619999 q -3.725334,0 -6.180667,-1.18533 -2.370667,-1.18534 -3.81,-3.048 -1.354666,-1.86267 -1.862666,-4.23334 -0.508,-2.37066 -0.508,-4.826 0,-2.539996 0.762,-4.910662 0.762,-2.370667 2.201333,-4.148667 1.524,-1.862666 3.725333,-2.878666 2.201333,-1.016 4.995333,-1.016 h 18.965333 z"/>
  </g>

  <!-- tagline -->
  <text x="640" y="300" text-anchor="middle" font-family="'Segoe UI',Inter,Helvetica,Arial,sans-serif" font-size="30">
    <tspan fill="#FFFFFF" font-weight="600">Software pragmático.</tspan><tspan fill="#9CA3AF" dx="12">Feito em Beagá</tspan><tspan fill="#E11D2A" font-size="24" dy="-1" dx="10">▲</tspan>
  </text>
</svg>
